<?xml version="1.0" encoding="utf-8"?>
<!-- Generator: Adobe Illustrator 23.0.3, SVG Export Plug-In . SVG Version: 6.00 Build 0)  -->
<svg version="1.1" id="Camada_1" xmlns="http://www.w3.org/2000/svg" xmlns:xlink="http://www.w3.org/1999/xlink" x="0px" y="0px"
	 viewBox="0 0 59.4 59.39" style="enable-background:new 0 0 59.4 59.39;" xml:space="preserve">
<style type="text/css">
	.st0{fill:#084D6E;}
	.st1{fill:#FFFFFF;}
	.st2{clip-path:url(#SVGID_2_);fill:#FFFFFF;}
</style>
<path class="st0" d="M36.06,58.2h-6.15v-4.5l-2.51,0.08v4.42h-6.15v-2.55l-1.05-1.64c-1.14-1.78-2.57-3.4-3.95-4.97
	c-2.55-2.9-5.2-5.9-6.21-10.04c-0.64-2.62-0.92-5.38-0.83-8.02c-2.01-0.93-2.85-3.95-3.61-6.64c-0.46-1.65-0.9-3.22-1.5-4
	c-1.19-1.55-2.51-2.98-2.89-3.13c0.03,0.01,0.14,0.03,0.27-0.01l-0.46-1.28c0,0,0.01,0,0.01,0c11.69-4.2,17.38,0.32,18.68,1.58
	c0.69-0.22,2.35-0.86,3.21-1.2c0.74-0.29,1.14-0.44,1.28-0.49c2.53-0.78,5.49-0.74,8.8,0.13c0.49,0.13,0.99,0.31,1.48,0.48
	c1.14,0.4,2.32,0.82,3.35,0.63l1.61-0.3l-0.05,0.07c2.46-1.7,5.02-2.67,7.65-2.88c5.75-0.47,9.67,2.86,9.84,3l0.92,0.8l-1.16,0.37
	c-4.77,1.51-4.82,4.49-4.82,4.52l-0.01,0.1c-0.86,5.57-3.05,7.56-4,8.18l0,0.86c0.02,4.08,0.04,8.3-1.76,12.17
	c-1.56,3.36-4.17,6.68-7.75,9.85c-0.11,0.1-0.39,0.3-0.73,0.55c-0.42,0.31-1.24,0.9-1.53,1.19V58.2z M31.28,56.84h3.42v-1.51
	c0-0.51,0.42-0.87,2.09-2.09c0.29-0.21,0.53-0.38,0.62-0.47c3.44-3.05,5.93-6.22,7.42-9.41c1.67-3.59,1.65-7.65,1.63-11.59l0-1.73
	l0.43-0.17c0.02-0.01,2.62-1.19,3.57-7.31c0.02-0.49,0.33-3.48,4.53-5.29c-1.43-0.89-4.27-2.26-7.85-1.96
	c-4.14,0.34-8.14,2.78-11.88,7.24l-1.07-0.84c0,0,1.47-2,2.42-3.3c-0.89-0.12-1.77-0.43-2.57-0.71c-0.48-0.17-0.94-0.33-1.37-0.44
	c-3.06-0.8-5.77-0.85-8.05-0.14c-0.11,0.03-0.66,0.25-1.19,0.45c-4.07,1.58-4.08,1.56-4.47,1.1c-0.2-0.23-4.84-5.48-16.15-1.92
	c0.58,0.55,1.34,1.41,2.38,2.76c0.76,0.99,1.23,2.68,1.73,4.46c0.72,2.56,1.53,5.47,3.16,5.88l0.55,0.14l-0.03,0.56
	c-0.15,2.66,0.12,5.47,0.77,8.13c0.93,3.82,3.35,6.56,5.9,9.46c1.42,1.61,2.88,3.27,4.08,5.14l1.27,1.98v1.59h3.42v-4.37l5.24-0.18
	V56.84z M19.99,17.78C20,17.79,20,17.79,19.99,17.78C20,17.79,20,17.79,19.99,17.78z"/>
<g>
	<g>
		<g>
			<g>
				<path class="st0" d="M28.4,35.16c-4.43,0-8.01,2.05-8.01,4.59c0,2.53,3.59,4.59,8.01,4.59s8.01-2.05,8.01-4.59
					C36.41,37.22,32.82,35.16,28.4,35.16z M25.78,40.62c-0.48,0-0.87-0.39-0.87-0.87c0-0.48,0.39-0.87,0.87-0.87
					c0.48,0,0.87,0.39,0.87,0.87C26.65,40.23,26.26,40.62,25.78,40.62z M30.59,40.62c-0.48,0-0.87-0.39-0.87-0.87
					c0-0.48,0.39-0.87,0.87-0.87c0.48,0,0.87,0.39,0.87,0.87C31.47,40.23,31.08,40.62,30.59,40.62z"/>
			</g>
		</g>
		<g>
			<ellipse class="st0" cx="32.4" cy="28.31" rx="1.81" ry="3.1"/>
		</g>
		<g>
			<ellipse class="st0" cx="24.91" cy="28.31" rx="1.81" ry="3.1"/>
		</g>
		<g>
			<path class="st0" d="M23.49,45.18c0,0,1.81,3.23,7.11,1.74C30.59,46.92,26.49,51.27,23.49,45.18z"/>
		</g>
	</g>
</g>
<circle class="st0" cx="30.9" cy="6.37" r="5.81"/>
<g>
	<path class="st1" d="M31.64,9.42c-0.06,0.02-0.12,0.03-0.19,0.04c-0.16,0.03-0.27,0.19-0.24,0.35c0.01,0.08,0.06,0.15,0.12,0.19
		c0.06,0.04,0.14,0.06,0.23,0.05c0.07-0.01,0.15-0.03,0.22-0.05c0.16-0.04,0.26-0.2,0.22-0.36C31.96,9.47,31.8,9.38,31.64,9.42
		L31.64,9.42z M31.64,9.42"/>
	<path class="st1" d="M33.85,5.41c0.02,0.06,0.06,0.11,0.11,0.15c0.07,0.05,0.17,0.07,0.27,0.04c0.16-0.05,0.24-0.22,0.19-0.38
		c-0.02-0.07-0.05-0.14-0.08-0.21c-0.06-0.15-0.24-0.23-0.39-0.17c-0.15,0.06-0.23,0.24-0.17,0.39C33.81,5.29,33.83,5.35,33.85,5.41
		L33.85,5.41z M33.85,5.41"/>
	<path class="st1" d="M32.61,8.99c-0.05,0.03-0.11,0.07-0.16,0.1c-0.14,0.08-0.19,0.27-0.11,0.41c0.02,0.04,0.05,0.07,0.09,0.09
		c0.09,0.06,0.22,0.07,0.32,0.01c0.07-0.04,0.13-0.08,0.19-0.12c0.14-0.09,0.18-0.28,0.08-0.41C32.93,8.94,32.75,8.9,32.61,8.99
		L32.61,8.99z M32.61,8.99"/>
	<path class="st1" d="M34.6,6.25c-0.01-0.16-0.15-0.29-0.31-0.29C34.13,5.97,34,6.1,34.01,6.27c0,0.06,0,0.13,0,0.19
		c0,0.1,0.05,0.2,0.13,0.25c0.05,0.03,0.1,0.05,0.17,0.05c0.16,0,0.3-0.13,0.31-0.29C34.61,6.4,34.61,6.32,34.6,6.25L34.6,6.25z
		 M34.6,6.25"/>
	<path class="st1" d="M33.8,8.2c-0.13-0.1-0.32-0.07-0.42,0.06c-0.04,0.05-0.08,0.1-0.12,0.15c-0.11,0.13-0.09,0.31,0.03,0.42
		c0.01,0.01,0.01,0.01,0.02,0.02c0.12,0.09,0.3,0.07,0.4-0.05c0.05-0.06,0.1-0.12,0.14-0.18C33.96,8.49,33.93,8.3,33.8,8.2L33.8,8.2
		z M33.8,8.2"/>
	<g>
		<defs>
			<rect id="SVGID_1_" x="27.17" y="2.67" width="7.45" height="7.39"/>
		</defs>
		<clipPath id="SVGID_2_">
			<use xlink:href="#SVGID_1_"  style="overflow:visible;"/>
		</clipPath>
		<path class="st2" d="M30.34,9.46c-0.27-0.05-0.52-0.13-0.77-0.24c0,0-0.01,0-0.01,0c-0.06-0.03-0.11-0.06-0.17-0.09c0,0,0,0,0,0
			c-0.1-0.06-0.2-0.12-0.3-0.19C27.69,7.95,27.35,6,28.34,4.59c0.22-0.31,0.48-0.56,0.77-0.76c0,0,0.01,0,0.01-0.01
			c1.02-0.71,2.41-0.75,3.5-0.03l-0.23,0.34c-0.06,0.09-0.03,0.16,0.09,0.15l1.01-0.09c0.11-0.01,0.18-0.11,0.15-0.22l-0.27-0.98
			c-0.03-0.11-0.11-0.12-0.17-0.03L32.96,3.3c-0.8-0.54-1.75-0.74-2.7-0.58c-0.1,0.02-0.19,0.04-0.28,0.06c0,0,0,0,0,0
			c0,0-0.01,0-0.01,0C29.14,3,28.42,3.48,27.91,4.16c0,0.01-0.01,0.01-0.01,0.02c-0.02,0.02-0.03,0.05-0.05,0.07
			c-0.03,0.04-0.05,0.08-0.08,0.12c0,0-0.01,0.01-0.01,0.01c-0.42,0.65-0.62,1.41-0.59,2.17c0,0,0,0.01,0,0.01
			c0,0.07,0.01,0.15,0.02,0.23c0,0,0,0.01,0,0.01c0.01,0.08,0.02,0.15,0.03,0.23c0.13,0.77,0.5,1.46,1.04,2c0,0,0,0,0,0c0,0,0,0,0,0
			c0.15,0.14,0.31,0.28,0.48,0.4c0.45,0.32,0.95,0.52,1.48,0.62c0.16,0.03,0.32-0.08,0.35-0.24C30.61,9.64,30.5,9.49,30.34,9.46
			L30.34,9.46z M30.34,9.46"/>
	</g>
	<path class="st1" d="M30.7,3.97c-0.13,0-0.24,0.11-0.24,0.24v2.41l2.2,1.14c0.04,0.02,0.07,0.03,0.11,0.03
		c0.09,0,0.17-0.05,0.22-0.13c0.06-0.12,0.01-0.26-0.1-0.33l-1.94-1V4.22C30.95,4.08,30.84,3.97,30.7,3.97L30.7,3.97z M30.7,3.97"/>
	<path class="st1" d="M34.24,7.12c-0.16-0.05-0.33,0.04-0.37,0.2c-0.02,0.06-0.04,0.12-0.06,0.18c-0.05,0.13,0,0.27,0.11,0.35
		c0.02,0.01,0.04,0.03,0.07,0.03c0.15,0.06,0.33-0.02,0.39-0.17c0.03-0.07,0.05-0.14,0.07-0.21C34.49,7.34,34.4,7.17,34.24,7.12
		L34.24,7.12z M34.24,7.12"/>
</g>
</svg>
